<?xml version="1.0" encoding="UTF-8"?>
<svg width="150px" height="150px" viewBox="0 0 150 150" version="1.1" xmlns="http://www.w3.org/2000/svg" xmlns:xlink="http://www.w3.org/1999/xlink">
    <!-- Generator: Sketch 44.1 (41455) - http://www.bohemiancoding.com/sketch -->
    <title>favicon</title>
    <desc>Created with Sketch.</desc>
    <defs></defs>
    <g id="Page-1" stroke="none" stroke-width="1" fill="none" fill-rule="evenodd">
        <g id="favicon">
            <rect id="Rectangle" fill="#59BB2F" x="0" y="0" width="150" height="150"></rect>
            <g id="logo" transform="translate(13.000000, 39.000000)" fill="#FFFFFF">
                <path d="M32.9,16 L32.9,47.1 C32.9,55.7 29.2,60 22,60 C16.5,60 11.9,57.2 8.1,52 L0.7,60.9 C5.5,67.4 13.5,71 22.3,71 C37.7,71 45.9,62.9 45.9,46.4 L45.9,16 L32.9,16 Z" id="Combined-Shape"></path>
                <path d="M8,0 L64,0 L64,11 L8,11 L8,0 Z M92.8,0 C111.2,0 122.6,9.4 122.6,24.9 C122.6,40.3 111.2,49.8 92.8,49.8 L77,49.8 L77,70 L64,70 L64,0 L92.8,0 Z M92.2467692,38.8 C103.681846,38.8 109.6,33.7 109.6,24.9 C109.6,16.1 103.681846,11 92.2467692,11 L77,11 L77,38.8 L92.2467692,38.8 Z M64,11 L64,16 L77,16 L77,11 L64,11 Z" id="Combined-Shape"></path>
            </g>
        </g>
    </g>
</svg>