<svg version="1" xmlns="http://www.w3.org/2000/svg" width="820" height="820" viewBox="0 0 615.000000 615.000000"><path d="M40 157.5V185l215.3.1c118.3.1 216.3.2 217.7.3 12.1 1.2 16.6 2 23.5 3.8 25.9 6.8 41.7 21 48.6 43.8 3 9.8 3.3 31 .6 41-6.1 22.8-22.5 38.5-47.2 45.3-14.8 4-23.7 4.6-70.4 4.7H385V210h-65v270h65V379l45.8-.1c25.1-.1 47.1-.2 48.7-.4 36.2-2.8 62.6-11.1 85.3-26.7 25.5-17.6 43.5-47.7 47-79 .9-8.2.8-30.7-.1-38.3-4.2-32.9-23.4-62.8-51.7-80.6-10.5-6.6-31.3-15.4-40.9-17.4-.9-.2-4.7-1-8.6-1.9-19-4.4-19-4.4-250.2-4.5L40 130v27.5z"/><path d="M164.4 293.7c0 89.8 0 90.4-5.2 104.8-5.2 14.8-15.6 24.6-30.7 29.1-8.4 2.6-28.5 2.5-37.5 0-17.7-5.1-30-13.5-45-30.7l-5.7-6.7-18.2 21.9C12.2 424.1 4 434.4 4 435c0 2 20.2 21.5 27 26.1 16.5 11 38.5 19.6 57.5 22.4 7 1 35.8 1.4 42 .5 3.3-.5 8.1-1.1 10.6-1.4 12.4-1.6 30.1-7.9 41.6-14.8 8.4-5 20.6-17 26.8-26.2 10.8-16.3 17.4-37.5 19.2-61.6.4-5.2.7-45.5.8-89.5v-80l-32.5-.3-32.5-.2-.1 83.7z"/></svg>